<?xml version="1.0" encoding="UTF-8"?>
<svg xmlns="http://www.w3.org/2000/svg" viewBox="0 0 211.55 190.12">
  <defs>
    <style>
      .cls-1 {
        fill: #ffcdaa;
      }

      .cls-2, .cls-3 {
        fill: #696d6e;
      }

      .cls-3 {
        font-family: Hansip, Hansip;
        font-size: 22.67px;
      }

      .cls-4 {
        isolation: isolate;
      }

      .cls-5 {
        fill: #ffede0;
      }

      .cls-6 {
        fill: #ffc5b7;
        mix-blend-mode: multiply;
        opacity: .5;
      }
    </style>
  </defs>
  <g class="cls-4">
    <g id="Camada_2" data-name="Camada 2">
      <g id="OBJECTS">
        <g>
          <g>
            <g>
              <path class="cls-1" d="M101,18.46c-.44,3.57-1.28,6.89-2.07,9.08-.46,1.29-1.59,2.63-3.07,1.71-.48-.3-.84-.77-1.18-1.23-4.5-6.13-10.54-16.41-6.7-24.14,2.04-4.1,7.2-3.86,10.15-.89,3.78,3.81,3.47,10.57,2.86,15.47Z"/>
              <path class="cls-2" d="M96.82,30.32c-.4,0-.86-.1-1.37-.42-.59-.37-1-.88-1.39-1.43-5.21-7.11-10.61-17.2-6.77-24.94.94-1.9,2.58-3.12,4.6-3.45,2.36-.38,4.97.52,6.79,2.36,4.05,4.08,3.7,11.15,3.08,16.11-.4,3.22-1.19,6.68-2.11,9.24-.43,1.2-1.21,2.09-2.09,2.4-.2.07-.45.13-.74.13ZM93,1.54c-.29,0-.57.02-.85.07-1.07.17-2.55.77-3.46,2.61-3.5,7.04,1.67,16.58,6.63,23.34.32.43.61.81.96,1.03.39.24.63.2.78.15.43-.15.88-.72,1.15-1.46.88-2.46,1.64-5.8,2.03-8.91.58-4.64.93-11.22-2.65-14.83-1.25-1.27-2.95-1.99-4.59-1.99Z"/>
            </g>
            <g>
              <path class="cls-1" d="M51.5,42.25c1.18,3.4,1.9,6.75,2.16,9.06.15,1.36-.27,3.06-1.99,2.89-.57-.06-1.09-.32-1.6-.58-6.75-3.51-16.71-10.06-16.68-18.68.01-4.58,4.75-6.65,8.71-5.29,5.08,1.75,7.79,7.95,9.41,12.61Z"/>
              <path class="cls-2" d="M51.91,54.98c-.1,0-.2,0-.31-.02-.69-.07-1.29-.35-1.88-.66-7.81-4.07-17.12-10.73-17.1-19.37,0-2.12.93-3.94,2.6-5.13,1.95-1.39,4.69-1.73,7.13-.89,5.43,1.87,8.25,8.36,9.89,13.08,1.07,3.07,1.89,6.52,2.2,9.22.14,1.26-.16,2.41-.82,3.08-.32.32-.86.68-1.71.68ZM39.61,30c-1.28,0-2.52.36-3.5,1.06-.89.63-1.94,1.81-1.95,3.87-.02,7.86,8.83,14.13,16.27,18,.47.25.9.45,1.32.5.46.05.65-.1.77-.22.32-.33.47-1.04.38-1.82-.3-2.6-1.09-5.92-2.12-8.89-1.54-4.42-4.13-10.48-8.93-12.13-.73-.25-1.49-.37-2.23-.37Z"/>
            </g>
            <g>
              <path class="cls-1" d="M20.35,80.65c3.26,1.52,6.16,3.34,8,4.76,1.08.83,2.01,2.32.68,3.44-.44.37-.99.56-1.53.74-7.22,2.4-18.86,4.99-25.03-1.03-3.28-3.2-1.47-8.04,2.27-9.93,4.79-2.43,11.13-.06,15.6,2.02Z"/>
              <path class="cls-2" d="M13.39,93.03c-4.39,0-8.5-1.04-11.45-3.92-1.52-1.48-2.18-3.41-1.87-5.44.36-2.37,2.02-4.57,4.33-5.74,5.13-2.6,11.74-.1,16.28,2.01,2.94,1.37,5.99,3.18,8.15,4.84,1.01.78,1.62,1.79,1.64,2.73.01.51-.14,1.25-.93,1.92-.54.45-1.15.68-1.79.89-4.37,1.45-9.54,2.7-14.36,2.7ZM9.41,78.37c-1.52,0-2.99.27-4.31.95-1.87.95-3.21,2.71-3.5,4.59-.16,1.08-.05,2.66,1.42,4.1,5.63,5.49,16.29,3.49,24.24.85.51-.17.95-.33,1.28-.6.35-.29.38-.54.38-.7,0-.46-.42-1.06-1.04-1.54-2.07-1.6-5.01-3.34-7.86-4.67-3-1.39-6.95-2.98-10.61-2.98Z"/>
            </g>
            <g>
              <path class="cls-1" d="M24.5,127.33c3.52-.74,6.94-1.02,9.26-.99,1.37.02,3,.65,2.61,2.34-.13.56-.45,1.04-.78,1.51-4.34,6.24-12.1,15.3-20.65,14.17-4.54-.6-5.99-5.55-4.14-9.31,2.38-4.81,8.87-6.72,13.7-7.73Z"/>
              <path class="cls-2" d="M16.4,145.23c-.52,0-1.04-.03-1.56-.1-2.1-.28-3.79-1.42-4.75-3.23-1.13-2.11-1.12-4.87.03-7.19,2.55-5.15,9.34-7.12,14.23-8.14,3.18-.67,6.7-1.05,9.43-1.01,1.27.02,2.37.47,2.95,1.2.31.4.64,1.09.41,2.09-.16.68-.51,1.23-.9,1.78-4.72,6.79-11.88,14.6-19.83,14.6ZM33.39,127.1c-2.56,0-5.79.36-8.73.98-4.58.96-10.92,2.77-13.17,7.32-.93,1.88-.95,4.09-.05,5.77.51.96,1.55,2.16,3.59,2.43,7.79,1.03,15.13-6.97,19.92-13.85.3-.44.56-.84.66-1.25.1-.44-.02-.66-.12-.79-.28-.36-.97-.6-1.75-.61-.12,0-.24,0-.36,0Z"/>
            </g>
            <g>
              <path class="cls-1" d="M160.04,28.18c-1.18,3.4-1.9,6.75-2.16,9.06-.15,1.36.27,3.06,1.99,2.89.57-.06,1.09-.32,1.6-.58,6.75-3.51,16.71-10.06,16.68-18.68-.01-4.58-4.75-6.65-8.71-5.29-5.08,1.75-7.79,7.95-9.41,12.61Z"/>
              <path class="cls-2" d="M159.64,40.91c-.84,0-1.39-.36-1.71-.68-.66-.67-.96-1.82-.82-3.08.31-2.71,1.13-6.15,2.2-9.22,1.64-4.72,4.45-11.21,9.89-13.08,2.45-.84,5.18-.5,7.13.89,1.67,1.19,2.59,3.01,2.6,5.13.03,8.64-9.29,15.3-17.1,19.37-.59.31-1.19.59-1.88.66-.11.01-.21.02-.31.02ZM160.77,28.43c-1.03,2.97-1.83,6.29-2.12,8.89-.09.78.06,1.49.38,1.82.11.11.32.27.77.22.42-.04.85-.25,1.32-.5,7.44-3.87,16.29-10.13,16.27-18,0-2.06-1.06-3.24-1.95-3.87-1.56-1.11-3.75-1.37-5.73-.69-4.8,1.65-7.39,7.71-8.93,12.13h0Z"/>
            </g>
            <g>
              <path class="cls-1" d="M191.19,66.58c-3.26,1.52-6.16,3.34-8,4.76-1.08.83-2.01,2.32-.68,3.44.44.37.99.56,1.53.74,7.22,2.4,18.86,4.99,25.03-1.03,3.28-3.2,1.47-8.04-2.27-9.93-4.79-2.43-11.13-.06-15.6,2.02Z"/>
              <path class="cls-2" d="M198.15,78.96c-4.82,0-9.99-1.25-14.36-2.7-.64-.21-1.25-.44-1.79-.89-.79-.66-.94-1.41-.93-1.92.02-.93.63-1.95,1.64-2.73,2.16-1.66,5.21-3.47,8.15-4.84,4.53-2.11,11.15-4.61,16.28-2.01,2.31,1.17,3.96,3.37,4.33,5.74.31,2.03-.35,3.96-1.87,5.44-2.95,2.88-7.05,3.92-11.45,3.92ZM202.13,64.3c-3.66,0-7.62,1.59-10.61,2.98-2.85,1.32-5.79,3.07-7.86,4.67-.62.48-1.03,1.08-1.04,1.54,0,.16.03.41.38.7.32.27.77.43,1.27.6,7.95,2.64,18.62,4.64,24.24-.85,1.47-1.44,1.59-3.02,1.42-4.1-.29-1.89-1.63-3.65-3.5-4.59-1.33-.67-2.79-.95-4.31-.95Z"/>
            </g>
            <g>
              <path class="cls-1" d="M187.05,113.26c-3.52-.74-6.94-1.02-9.26-.99-1.37.02-3,.65-2.61,2.34.13.56.45,1.04.78,1.51,4.34,6.24,12.1,15.3,20.65,14.17,4.54-.6,5.99-5.55,4.14-9.31-2.38-4.81-8.87-6.72-13.7-7.73Z"/>
              <path class="cls-2" d="M195.15,131.17c-7.95,0-15.1-7.81-19.83-14.6-.38-.55-.74-1.1-.9-1.78-.23-1,.09-1.69.41-2.09.58-.73,1.68-1.18,2.95-1.2,2.71-.04,6.25.34,9.43,1.01,4.89,1.03,11.69,2.99,14.23,8.14,1.15,2.32,1.16,5.07.03,7.19-.97,1.81-2.65,2.96-4.75,3.23-.52.07-1.04.1-1.56.1ZM178.16,113.04c-.12,0-.24,0-.36,0-.78.01-1.47.25-1.75.61-.1.13-.22.35-.12.79.09.41.35.81.66,1.25,4.78,6.88,12.12,14.87,19.92,13.85,2.04-.27,3.08-1.47,3.59-2.43.9-1.68.88-3.89-.05-5.77-2.25-4.55-8.59-6.36-13.17-7.32-2.93-.62-6.16-.98-8.73-.98Z"/>
            </g>
          </g>
          <g>
            <path class="cls-1" d="M173.2,99.45c-.08,1.57-.22,3.11-.43,4.61-1.95,14.07-9.52,25.22-19.97,33.34-13.03,10.11-30.54,15.52-47.24,16.02-12.76.38-25.44-2.41-36.47-9.29-.37-.23-.72-.46-1.08-.71-2.22-1.47-4.27-3.1-6.17-4.88-6.61-6.2-11.31-14.16-13.99-22.8-4.21-13.57-3.45-28.83,2.71-41.65,22.54-46.97,90.89-47.81,114.55-9.04,5.65,9.24,8.75,20.74,8.08,34.4Z"/>
            <path class="cls-2" d="M103.33,154.22c-12.79,0-24.73-3.25-34.65-9.44-.32-.2-.63-.41-.95-.62l-.15-.1c-2.22-1.48-4.33-3.15-6.26-4.96-6.47-6.08-11.39-14.08-14.2-23.13-4.37-14.09-3.37-29.48,2.75-42.22,10.54-21.95,32.14-35.83,57.78-37.12,24.55-1.24,46.82,9.5,58.13,28.02,6.08,9.95,8.84,21.67,8.2,34.84-.08,1.56-.22,3.14-.43,4.68-1.84,13.28-8.84,24.98-20.26,33.85-12.57,9.76-29.95,15.65-47.69,16.18-.75.02-1.5.03-2.25.03ZM68.24,142.64s.2.13.2.13c.35.24.7.47,1.06.69,10.24,6.4,22.7,9.58,36.04,9.18,17.42-.52,34.47-6.29,46.79-15.85,11.09-8.62,17.9-19.97,19.68-32.84.21-1.5.35-3.03.42-4.54.62-12.85-2.06-24.28-7.97-33.96-11.01-18.03-32.75-28.48-56.73-27.28-25.07,1.26-46.18,14.81-56.47,36.25-5.95,12.39-6.92,27.37-2.67,41.09,2.74,8.8,7.5,16.57,13.78,22.47,1.81,1.7,3.79,3.28,5.87,4.67Z"/>
          </g>
          <g>
            <path class="cls-5" d="M172.4,104.07c-1.95,14.07-9.52,25.22-19.97,33.34-.49,0-.98-.09-1.47-.2-10.07-2.14-15.04-10.48-15.15-19.12-.1-8.15,4.11-16.57,12.43-20.31,2.05-.92,4.23-1.53,6.46-1.83,5.04-.68,14.22,3.66,17.71,8.11Z"/>
            <path class="cls-2" d="M152.44,138.19c-.58,0-1.13-.11-1.63-.21-9.45-2.01-15.63-9.8-15.76-19.86-.12-9.2,4.94-17.45,12.88-21.02,2.09-.94,4.33-1.58,6.67-1.89,5.22-.7,14.67,3.61,18.42,8.4.13.17.19.38.16.58-1.84,13.27-8.84,24.98-20.26,33.85-.13.11-.3.16-.47.16ZM155.83,96.66c-.36,0-.7.02-1.03.06-2.19.29-4.29.89-6.24,1.77-7.38,3.32-12.08,11.01-11.97,19.59.09,7.07,3.95,16.12,14.53,18.37.34.07.71.14,1.06.17,10.87-8.52,17.57-19.69,19.41-32.33-3.3-3.96-11-7.63-15.76-7.63Z"/>
          </g>
          <g>
            <path class="cls-5" d="M76.59,125.51c0,.11,0,.22-.01.32-.29,6.24-3.81,11.22-7.43,16.01-.55.72-.89,1.31-1.22,1.68-9.91-6.57-16.71-16.56-20.16-27.69.46-.63,1.32-1.18,2.65-1.89,6.6-3.48,15.54-4.12,21.49,1.1,3.05,2.68,4.79,6.42,4.68,10.46Z"/>
            <path class="cls-2" d="M67.92,144.29c-.15,0-.31-.04-.43-.13-9.54-6.33-16.8-16.31-20.46-28.1-.07-.23-.03-.49.11-.69.57-.78,1.54-1.39,2.92-2.12,6.52-3.44,15.97-4.4,22.36,1.2,3.29,2.9,5.05,6.82,4.95,11.05,0,.12,0,.23-.01.35-.3,6.3-3.76,11.37-7.59,16.44-.23.31-.42.59-.6.84-.24.35-.45.65-.67.9-.15.16-.35.25-.57.25ZM48.63,116.02c3.52,11.03,10.28,20.39,19.12,26.46.04-.06.09-.13.14-.2.18-.27.39-.57.64-.9,3.82-5.05,7-9.71,7.28-15.58,0-.09,0-.19,0-.28.1-3.79-1.47-7.29-4.42-9.88-5.84-5.12-14.56-4.19-20.62-1-1.09.58-1.75,1-2.15,1.39Z"/>
          </g>
          <g>
            <path class="cls-5" d="M81.69,102.57c-.13,2.6-2.58,4.22-4.38,2.66-1.17-1.02-1.47-3.1-.69-4.62,1.47-2.85,5.24-1.51,5.07,1.96Z"/>
            <path class="cls-2" d="M78.85,106.1c-.61,0-1.2-.23-1.71-.67-1.25-1.09-1.59-3.3-.75-4.94.68-1.31,1.94-1.94,3.22-1.6,1.24.33,2.44,1.6,2.33,3.69-.08,1.5-.89,2.8-2.09,3.31-.33.14-.67.21-1,.21ZM78.92,99.32c-.72,0-1.53.37-2.07,1.41-.74,1.43-.46,3.37.63,4.31.65.56,1.42.7,2.18.38,1.01-.43,1.71-1.55,1.77-2.86.09-1.8-.92-2.89-1.95-3.17-.17-.05-.36-.07-.56-.07Z"/>
          </g>
          <g>
            <path class="cls-5" d="M129.08,93.08c.37,2.81-1.55,4.96-3.47,3.61-1.26-.88-1.92-3.05-1.5-4.82.8-3.31,4.47-2.54,4.97,1.21Z"/>
            <path class="cls-2" d="M126.8,97.37c-.45,0-.9-.15-1.34-.46-1.33-.94-2.05-3.22-1.6-5.09.42-1.76,1.59-2.34,2.51-2.29,1.21.06,2.65,1.19,2.96,3.52.23,1.73-.37,3.34-1.48,4.01-.34.2-.69.31-1.06.31ZM126.26,90.04c-.9,0-1.61.7-1.89,1.9-.4,1.66.24,3.74,1.39,4.55.63.44,1.26.49,1.83.14.93-.56,1.43-2,1.24-3.51-.27-2.04-1.47-3.02-2.48-3.08-.03,0-.06,0-.09,0Z"/>
          </g>
          <path class="cls-2" d="M125.61,91.54c-.4,0-.74-.31-.77-.71-.04-.43.28-.8.71-.83,2.28-.19,4.43-1.55,5.6-3.55.21-.37.69-.49,1.06-.28.37.22.49.69.28,1.06-1.42,2.42-4.03,4.07-6.8,4.31-.02,0-.04,0-.07,0Z"/>
          <path class="cls-2" d="M75.8,101.24c-1.29,0-2.58-.22-3.79-.64-.4-.14-.61-.58-.47-.99.14-.4.58-.61.99-.47,1.89.66,3.98.74,5.91.2.41-.11.84.13.95.54.12.41-.13.84-.54.95-.99.27-2.01.41-3.04.41Z"/>
          <path class="cls-2" d="M99.15,114.37c-.62,0-1.25-.07-1.88-.22-1.85-.44-3.36-1.71-3.94-3.32-.14-.4.07-.84.47-.99.4-.14.84.07.99.47.39,1.11,1.51,2.02,2.84,2.34,2.68.64,5.54-.46,6.78-2.61.3-.51.63-1.29.53-2.11-.05-.42.25-.81.67-.86.43-.05.81.24.87.67.13.99-.12,2.05-.72,3.09-1.29,2.21-3.88,3.55-6.6,3.55Z"/>
          <g>
            <text class="cls-3" transform="translate(70.97 170) rotate(16.9)"><tspan x="0" y="0">a</tspan></text>
            <text class="cls-3" transform="translate(86.4 174.59) rotate(8.81)"><tspan x="0" y="0">g</tspan></text>
            <text class="cls-3" transform="translate(102.07 176.74) rotate(3.09)"><tspan x="0" y="0">i</tspan></text>
            <text class="cls-3" transform="translate(108.54 177.19) rotate(-2.07)"><tspan x="0" y="0">c</tspan></text>
            <text class="cls-3" transform="translate(121.86 176.79) rotate(-11.59)"><tspan x="0" y="0">A</tspan></text>
            <text class="cls-3" transform="translate(138.51 173.03) rotate(-22.44)"><tspan x="0" y="0">r</tspan></text>
            <g>
              <path class="cls-2" d="M68.66,158.05c-.09.05-.18.1-.26.15-.08.04-.16.09-.23.14l-3.74,2.15c-.08.05-.15.09-.22.12-.08.03-.16.06-.24.11-.49.19-.91.22-1.27.07s-.63-.46-.83-.95c-.24-.56-.41-1.15-.5-1.76-.09-.61-.16-1.23-.22-1.85-.01-.14-.03-.29-.04-.45-.01-.16-.03-.35-.05-.58-.29.38-.56.73-.8,1.06-.24.33-.48.65-.73.97-.44.61-.88,1.21-1.31,1.82-.43.6-.87,1.21-1.31,1.82-.14.18-.29.36-.45.55-.16.18-.33.34-.52.49-.3.22-.6.35-.9.38-.3.03-.61-.05-.91-.26-.57-.39-.77-.94-.6-1.67.03-.19.07-.37.13-.56.06-.18.13-.35.23-.51.37-.67.74-1.35,1.11-2.03.37-.68.76-1.34,1.17-2,.77-1.15,1.53-2.29,2.3-3.42.77-1.13,1.54-2.26,2.32-3.41.1-.13.2-.27.3-.39.1-.13.21-.24.35-.34.7-.56,1.42-.68,2.16-.36.38.16.67.39.86.71s.3.69.32,1.13c.01.11.02.21,0,.31,0,.1-.01.2-.01.3-.02,1.16-.05,2.31-.07,3.48s-.04,2.32-.05,3.49c0,.03,0,.07,0,.12,0,.04.02.11.04.21.12-.11.23-.21.34-.3.1-.09.2-.18.3-.27.55-.49,1.09-.97,1.62-1.44.54-.48,1.08-.95,1.65-1.43.3-.27.62-.52.93-.75.32-.23.65-.45,1-.67.83-.57,1.63-.59,2.42-.08.37.24.62.54.76.91.13.37.16.77.08,1.21-.14.74-.29,1.47-.45,2.18-.16.71-.35,1.43-.56,2.15-.37,1.25-.76,2.49-1.16,3.72-.4,1.23-.79,2.47-1.18,3.71-.12.38-.28.73-.48,1.06-.2.33-.46.63-.78.89-.34.27-.68.44-1.02.5-.34.07-.65.04-.94-.08-.29-.12-.53-.32-.74-.6-.21-.28-.34-.63-.4-1.05-.05-.36-.04-.72.05-1.05.08-.34.19-.67.3-1,.39-1.07.77-2.14,1.14-3.21.37-1.06.75-2.14,1.12-3.22,0-.03,0-.06,0-.08,0-.02-.01-.06-.02-.11Z"/>
              <path class="cls-2" d="M81.37,170.93c-.27.17-.52.29-.73.37-.48.23-.97.41-1.45.53-.49.12-1,.16-1.54.12-.83-.08-1.58-.33-2.26-.75-.68-.42-1.23-.95-1.66-1.59-.43-.64-.71-1.36-.84-2.14-.13-.78-.07-1.57.18-2.36.34-1.08.85-2.03,1.52-2.84.67-.82,1.44-1.46,2.31-1.94.87-.48,1.82-.75,2.85-.83,1.03-.07,2.08.09,3.15.5.28.12.55.26.8.43.25.17.5.37.73.6.15.14.29.25.43.33.14.08.32.13.53.15.45.01.82.18,1.11.49.28.31.42.69.41,1.13,0,.35-.06.73-.18,1.13-.18.65-.38,1.29-.58,1.92-.21.62-.4,1.26-.58,1.92-.18.64-.33,1.28-.44,1.91-.11.63-.13,1.27-.04,1.93.04.3,0,.6-.13.91-.24.62-.7.96-1.4,1.02-.65.06-1.15-.19-1.5-.74-.1-.17-.19-.35-.25-.54-.06-.19-.13-.37-.2-.57-.04-.17-.08-.34-.11-.52-.03-.18-.08-.37-.12-.57ZM79.88,163.75c-.75.14-1.37.45-1.85.93-.48.49-.84,1.19-1.07,2.12-.14.51-.11.91.1,1.19.21.28.49.47.84.55.35.08.73.08,1.14,0,.4-.08.74-.23,1.01-.45.41-.32.77-.62,1.07-.92.3-.29.59-.61.86-.93.47-.6.69-1.08.67-1.44s-.16-.63-.44-.81c-.28-.18-.64-.28-1.08-.3-.44-.02-.87,0-1.26.07Z"/>
              <path class="cls-2" d="M96.62,174.1c-.27.04-.51.07-.73.11-.22.03-.44.07-.66.12-.53.09-1.1.1-1.7.03-.6-.06-1.2-.22-1.79-.47-.59-.25-1.14-.6-1.66-1.04s-.96-.99-1.32-1.64c-.46-.85-.67-1.69-.63-2.51.04-.82.29-1.63.75-2.43.73-1.28,1.66-2.2,2.77-2.76,1.11-.56,2.39-.83,3.84-.8.52.02,1.09.12,1.73.29s1.24.43,1.81.75c.57.33,1.06.72,1.47,1.18.41.46.65.98.71,1.56.08.69.11,1.36.1,2.02-.01.66-.05,1.33-.13,2.01-.12,1.04-.28,2.05-.5,3.04-.21.99-.5,1.97-.87,2.94-.3.78-.71,1.46-1.21,2.05-.5.59-1.1,1.09-1.79,1.52-.51.33-1.05.56-1.62.67-.57.11-1.16.16-1.76.14-.87-.03-1.68-.21-2.44-.54-.76-.33-1.46-.79-2.1-1.38-.51-.48-.89-1-1.14-1.58-.25-.58-.36-1.22-.31-1.93,0-.34.07-.63.21-.89.09-.21.22-.38.38-.5.16-.12.33-.2.52-.23.19-.03.37-.01.55.05.18.07.35.19.51.37.34.39.6.8.79,1.25.15.34.34.64.6.88.25.25.54.44.86.57.32.13.67.21,1.05.23.38.02.77-.02,1.17-.13.22-.07.4-.15.52-.24.49-.32.9-.71,1.21-1.17.32-.46.59-.97.81-1.55ZM94.59,166.59c-.3.08-.62.23-.94.46-.33.23-.61.51-.84.83-.23.32-.39.66-.48,1-.08.35-.04.66.13.95.27.44.6.75.99.93.39.18.83.27,1.33.25.46-.02.92-.05,1.38-.08.46-.04.92-.07,1.38-.11.08-.19.15-.48.22-.88.07-.4.12-.83.17-1.28.06-.56,0-1-.14-1.33-.15-.33-.38-.57-.68-.71-.31-.15-.67-.22-1.1-.22-.43,0-.9.06-1.4.18Z"/>
              <path class="cls-2" d="M103.56,168.21c.05-.65.23-1.12.55-1.4.32-.29.66-.42,1.03-.4.37.02.72.18,1.04.49.33.31.52.72.58,1.23.08.52.15,1.15.21,1.9.07.75.1,1.5.09,2.27,0,.77-.06,1.51-.18,2.22s-.3,1.28-.57,1.72c-.2.28-.42.48-.66.62-.24.14-.49.2-.75.19-.26-.01-.5-.1-.74-.26-.23-.16-.43-.38-.6-.68-.19-.36-.32-.72-.38-1.1s-.08-.76-.06-1.15c.08-.99.16-1.95.21-2.86.06-.91.13-1.84.21-2.79ZM105.06,162.14c.48.03.88.21,1.18.56.31.35.44.77.4,1.25-.03.47-.22.86-.57,1.17-.36.31-.77.46-1.24.43-.47-.04-.86-.24-1.17-.61-.31-.36-.46-.77-.43-1.23.04-.48.24-.88.6-1.18.36-.31.77-.44,1.24-.4Z"/>
              <path class="cls-2" d="M115.59,163.98c.47.07.91.21,1.31.41.4.2.73.48,1.01.85.27.4.33.8.19,1.22-.14.41-.45.69-.91.83-.21.07-.43.12-.65.16-.23.04-.45.04-.68,0-.75-.14-1.36-.04-1.83.3-.47.34-.81.8-1.02,1.39-.21.58-.29,1.22-.25,1.91.04.69.2,1.32.48,1.86.24.4.51.65.81.75.3.1.6.11.92.04.31-.08.62-.22.93-.43.3-.21.58-.42.83-.64.53-.41,1.01-.63,1.44-.64.43-.02.76.1.99.35.23.25.33.59.31,1.03-.02.44-.22.9-.6,1.38-.56.67-1.21,1.2-1.93,1.59-.72.39-1.53.61-2.42.65-1.04.04-1.97-.16-2.78-.6-.81-.44-1.47-1.14-1.97-2.11-.39-.73-.63-1.51-.72-2.34s-.06-1.66.08-2.48c.14-.81.4-1.59.78-2.32.37-.73.84-1.36,1.39-1.88.56-.52,1.2-.9,1.92-1.15.73-.25,1.51-.29,2.37-.14Z"/>
              <path class="cls-2" d="M131.39,172.24c-.97.23-1.94.46-2.91.7-.97.24-1.96.48-2.97.74-.07.18-.14.39-.22.61-.08.22-.16.45-.26.67-.08.19-.17.37-.26.55-.09.18-.19.35-.31.51-.36.44-.79.6-1.31.48-.54-.14-.85-.48-.93-1.04-.06-.3-.08-.6-.05-.92.03-.28.07-.57.12-.85.04-.28.1-.56.17-.83.45-1.85.84-3.71,1.16-5.57s.62-3.73.9-5.61c.05-.36.13-.72.23-1.07.11-.35.23-.69.38-1.03.14-.35.36-.64.65-.85.29-.21.6-.34.95-.39.34-.05.69,0,1.03.13.34.14.64.37.9.71.08.11.16.22.24.34s.16.25.23.37c.88,1.68,1.81,3.33,2.77,4.95.96,1.62,1.96,3.23,3,4.83.23.35.43.73.6,1.11.17.39.29.8.37,1.23.07.36.09.7.05,1.04-.04.34-.23.63-.58.87-.35.24-.71.33-1.08.28-.37-.06-.71-.21-1.02-.45-.31-.23-.62-.47-.91-.73-.3-.25-.61-.53-.93-.82ZM126.39,170.91c.61-.17,1.2-.33,1.75-.49.55-.15,1.13-.3,1.71-.46-.42-.7-.83-1.38-1.24-2.04s-.82-1.34-1.24-2.06c-.17.88-.34,1.73-.5,2.54-.16.81-.32,1.64-.48,2.49Z"/>
              <path class="cls-2" d="M138.08,161.48c.19-.7.44-1.36.76-1.98.32-.62.74-1.18,1.26-1.67.3-.27.67-.5,1.11-.7.44-.2.88-.31,1.32-.34.44-.03.85.05,1.22.23.38.18.64.5.78.97.07.25.08.5.02.74-.06.24-.15.48-.29.7-.14.22-.31.41-.51.58-.2.17-.41.29-.62.38-.47.21-.83.52-1.07.93-.25.41-.41.88-.49,1.4s-.08,1.07-.02,1.65c.07.58.17,1.14.3,1.68.13.54.29,1.04.46,1.5s.34.83.51,1.12c.08.15.15.29.22.44.07.14.12.29.15.44.09.41.03.79-.18,1.14-.2.35-.51.63-.93.81-.4.18-.8.23-1.2.15-.4-.08-.73-.28-.97-.6-.2-.29-.39-.59-.57-.91-.18-.31-.35-.62-.53-.92-.53-.96-1.06-1.91-1.59-2.86-.53-.95-1.06-1.91-1.6-2.88-.15-.25-.29-.5-.41-.76-.12-.26-.25-.53-.38-.8-.13-.24-.2-.47-.19-.71-.07-.48.13-.86.58-1.15.48-.3.93-.31,1.36-.04.15.1.3.22.43.35.13.14.26.27.39.39.09.11.19.22.3.34.11.12.23.25.37.39Z"/>
              <path class="cls-2" d="M151.28,158.67c-.21.12-.41.23-.59.33-.18.11-.37.2-.57.29-.26.13-.51.26-.77.4-.25.14-.5.26-.76.37-.38.15-.73.19-1.05.12-.31-.07-.53-.24-.66-.5-.11-.23-.13-.49-.06-.78.07-.29.26-.56.56-.82.39-.34.8-.66,1.21-.97.41-.31.83-.64,1.25-1-.15-.3-.3-.6-.46-.92-.15-.31-.3-.63-.45-.95-.08-.18-.16-.37-.24-.56-.08-.19-.16-.38-.22-.57-.13-.4-.13-.78,0-1.14s.38-.65.74-.88c.35-.22.71-.31,1.1-.28.39.03.73.2,1.02.5.33.36.66.74.98,1.14.32.4.65.8,1,1.21.13-.1.27-.2.41-.3.14-.1.29-.2.43-.31.26-.18.52-.36.78-.54.26-.18.53-.36.79-.53.32-.2.67-.32,1.03-.35.47-.08.82.02,1.06.31.24.29.29.64.15,1.07-.06.18-.15.36-.26.54s-.24.34-.38.48c-.36.39-.74.76-1.13,1.12-.39.36-.79.75-1.22,1.15.06.1.14.2.21.3.08.1.13.2.17.32.4.64.81,1.27,1.22,1.9.41.63.79,1.28,1.12,1.96.14.29.27.6.39.96.12.36.19.71.23,1.07.04.36.01.7-.07,1.04s-.26.61-.54.83c-.4.3-.79.44-1.18.4-.39-.03-.75-.17-1.1-.41s-.66-.53-.94-.88c-.28-.35-.53-.67-.73-.97-.38-.55-.73-1.11-1.06-1.69-.33-.58-.66-1.16-1-1.76l-.45-.71Z"/>
            </g>
          </g>
          <path class="cls-2" d="M96.19,80.41c-3.94,0-7.99-1.63-10.49-4.59-2.9-3.43-3.63-9.27-1.74-13.88,1.52-3.71,4.38-5.94,8.05-6.27.42-.04.8.27.84.7.04.42-.28.8-.7.84-4.14.37-6.01,3.49-6.76,5.32-1.69,4.11-1.06,9.28,1.49,12.3,3.43,4.05,10.14,5.29,14.66,2.71,1.86-1.06,3.11-2.93,3.34-5.01.22-1.98-.5-3.9-1.99-5.27-.67-.61-1.74-1.38-3.11-1.56-2.94-.4-4.32,2.38-4.67,3.24-.16.4-.61.58-1.01.42-.39-.16-.58-.61-.42-1.01,1.21-2.94,3.62-4.55,6.31-4.18,1.4.19,2.76.87,3.95,1.96,1.86,1.71,2.76,4.11,2.48,6.58-.29,2.57-1.83,4.88-4.11,6.18-1.82,1.04-3.95,1.53-6.11,1.53Z"/>
          <path class="cls-6" d="M173.2,99.45c-.08,1.57-.22,3.11-.43,4.61-1.95,14.07-9.52,25.22-19.97,33.34-13.03,10.11-30.54,15.52-47.24,16.02-12.76.38-25.44-2.41-36.47-9.29-.37-.23-.72-.46-1.08-.71-2.22-1.47-4.27-3.1-6.17-4.88.91.3,1.71.54,2.32.65,4.9.91,9.86,1.43,14.83,1.73,18.27,1.1,34.33,1.39,50.73-7.86,22.15-12.49,39.86-38.52,35.98-64.76-.16-1.09-.36-2.17-.59-3.25,5.65,9.24,8.75,20.74,8.08,34.4Z"/>
          <path class="cls-2" d="M159.68,85.59c-.47-.03-.8-.39-.77-.82.39-6.66-2.71-15.07-7.89-21.41-4.23-5.17-9.39-9.42-15.32-12.63-.38-.2-.52-.67-.31-1.05.2-.37.67-.52,1.05-.31,6.11,3.3,11.42,7.68,15.79,13.01,4.31,5.27,8.74,13.94,8.24,22.48-.02.41-.37.73-.77.73Z"/>
        </g>
      </g>
    </g>
  </g>
</svg>